<svg xmlns="http://www.w3.org/2000/svg" version="1.0" width="300" height="38" viewBox="0 0 128 16"><rect width="100%" height="100%" fill="transparent"/><path fill="#e99494" d="M6.4 4.8A3.2 3.2 0 113.2 8a3.2 3.2 0 013.2-3.2zm12.8 0A3.2 3.2 0 1116 8a3.2 3.2 0 013.2-3.2zm12.8 0A3.2 3.2 0 1128.8 8 3.2 3.2 0 0132 4.8zm12.8 0A3.2 3.2 0 1141.6 8a3.2 3.2 0 013.2-3.2zm12.8 0A3.2 3.2 0 1154.4 8a3.2 3.2 0 013.2-3.2zm12.8 0A3.2 3.2 0 1167.2 8a3.2 3.2 0 013.2-3.2zm12.8 0A3.2 3.2 0 1180 8a3.2 3.2 0 013.2-3.2zm12.8 0A3.2 3.2 0 1192.8 8 3.2 3.2 0 0196 4.8zm12.8 0a3.2 3.2 0 11-3.2 3.2 3.2 3.2 0 013.2-3.2zm12.8 0a3.2 3.2 0 11-3.2 3.2 3.2 3.2 0 013.2-3.2z"/><g><path fill="#ca0000" d="M-42.7 3.8A4.2 4.2 0 01-38.5 8a4.2 4.2 0 01-4.2 4.2A4.2 4.2 0 01-46.9 8a4.2 4.2 0 014.2-4.2zm12.8-.6A4.8 4.8 0 01-25.1 8a4.8 4.8 0 01-4.8 4.8A4.8 4.8 0 01-34.7 8a4.8 4.8 0 014.8-4.8zm12.8-.6A5.4 5.4 0 01-11.7 8a5.4 5.4 0 01-5.4 5.4A5.4 5.4 0 01-22.5 8a5.4 5.4 0 015.4-5.4z"/><animateTransform attributeName="transform" type="translate" values="23 0;36 0;49 0;62 0;74.5 0;87.5 0;100 0;113 0;125.5 0;138.5 0;151.5 0;164.5 0;178 0" calcMode="discrete" dur="1300ms" repeatCount="indefinite"/></g></svg>
