<svg xmlns="http://www.w3.org/2000/svg" width="300" height="25" fill="none" viewBox="0 0 278 23"><mask id="a" width="110" height="19" x="0" y="0" mask-type="alpha" maskUnits="userSpaceOnUse"><path fill="#fff" d="M92.9.8v16.9h3.3v-4.2l1.3-1.3 3.4 5.5h4l-5-7.7 4.5-4.5h-4l-4.2 4.4v-9H93zM59 .8V7c-.4-.6-.9-1-1.6-1.4-.6-.3-1.3-.5-2-.5a5 5 0 00-4 2c-.5.6-.9 1.2-1.1 2a8.2 8.2 0 000 4.8c.2.8.6 1.5 1 2.1.5.6 1 1.1 1.7 1.5.7.3 1.5.5 2.4.5.8 0 1.6-.1 2.2-.4.6-.3 1.2-.8 1.6-1.5v1.6h3.2V.8H59zm-4 14.4a3 3 0 01-1-1l-.5-1.2a6.2 6.2 0 01.5-4.1c.2-.4.5-.7.9-.9.4-.2.8-.3 1.4-.3.5 0 1 0 1.3.3.4.2.7.5 1 .9L59 10a7.3 7.3 0 010 3 4 4 0 01-.5 1.2c-.2.4-.5.6-.8.9-.4.2-.9.3-1.4.3-.5 0-1-.1-1.4-.3zM9 .8V7c-.3-.6-.9-1-1.5-1.4-.7-.3-1.4-.5-2-.5a5 5 0 00-4.1 2c-.5.6-.8 1.2-1 2a8.2 8.2 0 000 4.8c.2.8.5 1.5 1 2.1.4.6 1 1.1 1.7 1.5.7.3 1.5.5 2.4.5.8 0 1.5-.1 2.2-.4.6-.3 1.1-.8 1.5-1.5v1.6h3.2V.8H9.1zM5 15.2a3 3 0 01-1-1 4 4 0 01-.5-1.2 6.2 6.2 0 010-2.9L4 9c.2-.4.5-.7 1-.9.3-.2.8-.3 1.3-.3.6 0 1 0 1.4.3.4.2.7.5.9.9L9 10a7.3 7.3 0 010 3 4 4 0 01-.5 1.2c-.2.4-.5.6-.9.9-.4.2-.8.3-1.4.3-.5 0-1-.1-1.3-.3zM29.5 1.8v3.7h-2v2.2h2V15c0 .6 0 1.1.3 1.5.2.4.5.7.8.9l1.2.4a9.7 9.7 0 002.5.1l1-.1v-2.6a4.3 4.3 0 01-1 0c-.6 0-1 0-1.2-.2-.2-.2-.3-.6-.3-1.1v-6h2.5V5.4h-2.5V1.8h-3.3zm52.7 3.8A5.6 5.6 0 0079 9.1a8.1 8.1 0 000 5.2c.3.7.8 1.4 1.3 2 .5.5 1.2 1 2 1.2.7.4 1.5.5 2.5.5 1.6 0 3-.4 4-1.3 1-.8 1.6-2 1.9-3.7h-3.3c-.1.8-.4 1.4-.8 1.8-.4.5-1 .7-1.9.7-.5 0-1-.1-1.3-.4-.4-.2-.6-.5-.9-.9l-.4-1.2a6.5 6.5 0 010-2.7c0-.5.2-1 .5-1.3.2-.4.5-.7.9-1 .3-.2.8-.3 1.3-.3 1.4 0 2.3.7 2.5 2h3.3a4.6 4.6 0 00-1.9-3.4c-.5-.4-1.1-.7-1.8-.9a7.7 7.7 0 00-4.7.2zm-41.7-.3l-1.8.7a4 4 0 00-1.4 1.3c-.3.5-.5 1.1-.6 2h3.4c0-.7.3-1.2.7-1.5.3-.3.9-.4 1.5-.4h.9l.7.3.4.5c.2.2.2.5.2.8 0 .4 0 .7-.3.8-.2.2-.5.4-.9.4l-1.3.3a27 27 0 00-3 .5c-.5.1-1 .3-1.3.6a3 3 0 00-1 1c-.2.5-.3 1-.3 1.8 0 .6 0 1.1.3 1.6.2.5.5.8.9 1.1.4.3.8.6 1.3.7l1.6.2c.8 0 1.5-.1 2.3-.3.7-.2 1.3-.6 1.9-1.2a5 5 0 00.2 1.2h3.4c-.2-.3-.3-.6-.3-1.1l-.1-1.6V8.6a3 3 0 00-.5-1.8c-.4-.4-.8-.8-1.3-1-.5-.3-1.1-.4-1.7-.5a13.5 13.5 0 00-4 0zm.5 10.4a2 2 0 01-.7-.2L40 15l-.2-.8c0-.3 0-.6.2-.8l.4-.5.7-.3a6 6 0 011.5-.3A9.9 9.9 0 0044 12c.2 0 .4-.2.5-.3v2c0 .3-.2.7-.4 1-.1.3-.4.5-.8.8a3 3 0 01-1.5.3H41zM18.6 5.3l-1.8.7a4 4 0 00-1.4 1.3 4 4 0 00-.6 2h3.4c0-.7.3-1.2.7-1.5.3-.3.9-.4 1.5-.4h.9l.6.3.5.5.2.8c0 .4 0 .7-.3.8-.2.2-.5.4-1 .4l-1.2.3a26.8 26.8 0 00-3 .5c-.5.1-1 .3-1.3.6a3 3 0 00-1 1c-.2.5-.3 1-.3 1.8 0 .6 0 1.1.3 1.6.2.5.5.8.9 1.1.3.3.8.6 1.3.7l1.6.2c.8 0 1.5-.1 2.2-.3.8-.2 1.4-.6 2-1.2a5 5 0 00.2 1.2h3.4c-.2-.3-.3-.6-.3-1.1L26 15V8.6a3 3 0 00-.5-1.8c-.4-.4-.8-.8-1.3-1-.5-.3-1.1-.4-1.7-.5a13.5 13.5 0 00-4 0zm.5 10.4a2 2 0 01-.7-.2L18 15l-.2-.8c0-.3 0-.6.2-.8 0-.2.2-.3.4-.5l.7-.3a6 6 0 011.5-.3 9.7 9.7 0 001.5-.3c.2 0 .4-.2.5-.3v2l-.4 1-.8.8a3 3 0 01-1.5.3H19zm54-10.2v6.4c0 1.2-.3 2.1-.7 2.7-.4.5-1 .8-2 .8-.8 0-1.3-.3-1.6-.8-.4-.5-.5-1.2-.5-2.2v-7h-3.4V13l.2 2c.2.7.4 1.2.7 1.6.4.5.8.8 1.4 1a5.9 5.9 0 004.3 0c.7-.4 1.2-.9 1.6-1.6h.1v1.7h3.2V5.5H73zm33.2 12.2h3.7v-3.6h-3.7v3.6z"/></mask><g mask="url(#a)"><path fill="#000" fill-rule="evenodd" d="M-10.5 28.5h131V-9.7h-131v38.2z" clip-rule="evenodd"/></g><mask id="b" width="13" height="5" x="151" y="0" mask-type="alpha" maskUnits="userSpaceOnUse"><path fill="#fff" d="M154.9.3a5 5 0 00-1 .6 7.8 7.8 0 00-2 2v.2l.1.3 1.8 1.2.2.1.3-.1c.3-.5.6-1 .9-1.1.2-.3.5-.4.7-.4h.5a3.2 3.2 0 01.9.7 7 7 0 001.4 1 3 3 0 002.4 0l1-.7 1-1 .7-1V2v-.3L162 .3h-.2l-.3.1a15.8 15.8 0 01-1 1.2 2 2 0 01-.4.3c-.3.1-.6.2-1-.1l-.6-.5-.6-.5a4 4 0 00-1.3-.6L156 0c-.3 0-.7 0-1.1.2z"/></mask><g mask="url(#b)"><path fill="#000" fill-rule="evenodd" d="M148.5 8.4h18.8V-3.4h-18.8V8.4z" clip-rule="evenodd"/></g><mask id="c" width="10" height="18" x="162" y="0" mask-type="alpha" maskUnits="userSpaceOnUse"><path fill="#fff" d="M171.1.1h-2.5c-.2 0-.5 0-.5.3l-5.8 16.3c0 .2.1.5.4.5h2.5c.2 0 .5 0 .5-.3L171.5.6c0-.2-.1-.5-.4-.5z"/></mask><g mask="url(#c)"><path fill="#000" fill-rule="evenodd" d="M158.9 20.6h16v-24h-16v24z" clip-rule="evenodd"/></g><mask id="d" width="5" height="5" x="169" y="13" mask-type="alpha" maskUnits="userSpaceOnUse"><path fill="#000" d="M169.9 15.3c0 1 .8 1.9 1.8 1.9s1.9-.9 1.9-2c0-1-.9-1.8-1.9-1.8-1 0-1.8.8-1.8 1.9z"/></mask><g mask="url(#d)"><path fill="#000" fill-rule="evenodd" d="M166.5 20.6H177V9.9h-10.5v10.7z" clip-rule="evenodd"/></g><mask id="e" width="12" height="15" x="176" y="3" mask-type="alpha" maskUnits="userSpaceOnUse"><path fill="#000" d="M180.5 4l-1.6.8c-.4.4-.8.8-1 1.3a3 3 0 00-.4 1.4 3.2 3.2 0 00.8 2.3l1 .8a7.4 7.4 0 002 .9 25.4 25.4 0 001.8.6l.6.3.4.4.1.5c0 .3-.1.6-.5.8-.3.2-.8.3-1.5.3-.3 0-.6 0-1-.2a5.1 5.1 0 01-1.7-1l-.9-.8c0-.1-.1-.2-.3-.2 0 0-.2 0-.3.2l-1.2 2.3v.1l.1.3a7.2 7.2 0 005.2 2c.8 0 1.6 0 2.2-.3a5 5 0 001.7-1c.5-.3.8-.8 1-1.3.3-.6.5-1.1.5-1.7 0-1-.4-1.7-1.1-2.4a7.6 7.6 0 00-3.3-1.7 17.5 17.5 0 01-2-.7c-.2 0-.4-.2-.5-.3l-.1-.5.1-.4.4-.3.6-.2a4 4 0 012.4.4 3.5 3.5 0 011.5 1.2l.3.2c.1 0 .2 0 .3-.2l1.1-1.8V6v-.3a6 6 0 00-4.8-2.1c-.7 0-1.3 0-2 .3z"/></mask><g mask="url(#e)"><path fill="#000" fill-rule="evenodd" d="M173.4 20.6h17.5V.1h-17.5v20.5z" clip-rule="evenodd"/></g><mask id="f" width="12" height="20" x="189" y="3" mask-type="alpha" maskUnits="userSpaceOnUse"><path fill="#000" d="M194.7 3.7a3.4 3.4 0 00-1.5.7l-.4.4v-.6c0-.2-.2-.4-.4-.4H190c-.2 0-.3.2-.3.4v18c0 .2.1.4.3.4h2.5c.2 0 .4-.2.4-.4v-6l1 .6c1.3.5 2.5.4 3.6 0 .7-.4 1.2-.8 1.7-1.3.5-.6.9-1.2 1.2-2 .2-.9.4-1.8.4-2.9 0-1.1-.2-2.2-.4-3-.3-1-.7-1.7-1.2-2.3a4.8 4.8 0 00-3.7-1.7h-.8zm-.5 10.4c-.3-.1-.5-.4-.7-.7-.2-.3-.3-.7-.4-1.3a10.2 10.2 0 01.2-4.6c.2-.4.4-.6.7-.8.2-.2.6-.3 1-.3a2 2 0 011.9 1c.4.7.7 1.7.7 3 0 .8-.1 1.4-.3 2-.1.4-.3.8-.6 1-.2.4-.5.6-.8.7a2 2 0 01-.9.2c-.3 0-.6 0-.8-.2z"/></mask><g mask="url(#f)"><path fill="#000" fill-rule="evenodd" d="M186.2 26h18V.1h-18V26z" clip-rule="evenodd"/></g><mask id="g" width="12" height="15" x="202" y="3" mask-type="alpha" maskUnits="userSpaceOnUse"><path fill="#000" d="M208.1 3.6a6.3 6.3 0 00-4.3 2l-.1.2V6l1.3 1.7.3.1h.2c.5-.6 1.4-1.4 2.8-1.5.7 0 1.2.2 1.5.6.4.4.5 1 .6 1.8H209c-1 0-2 .1-2.7.3-.8.2-1.4.6-2 1-.5.4-.9.9-1.2 1.4-.3.6-.4 1.2-.4 2 0 .4 0 1 .3 1.4.1.5.4.9.8 1.2.3.4.8.7 1.3.9a5.4 5.4 0 005.3-1v.6c0 .2.1.4.3.4h2.4c.2 0 .4-.1.4-.4V9c0-1-.1-1.8-.3-2.4-.3-.7-.6-1.3-1-1.7a4 4 0 00-1.7-1 7 7 0 00-2.1-.3h-.3zM207 14.4c-.2 0-.4-.2-.5-.3l-.4-.4a1 1 0 010-.6v-.6l.6-.6a3 3 0 011-.5H210.6l-.1.7c0 .3 0 .5-.2.6l-.3.5a4 4 0 01-.6.6 3 3 0 01-.8.5c-.3.2-.6.2-1 .2l-.6-.1z"/></mask><g mask="url(#g)"><path fill="#000" fill-rule="evenodd" d="M199.3 20.6h17.6V.1h-17.6v20.5z" clip-rule="evenodd"/></g><mask id="h" width="12" height="15" x="215" y="3" mask-type="alpha" maskUnits="userSpaceOnUse"><path fill="#000" d="M219.4 4a6.5 6.5 0 00-3.2 3.5c-.3 1-.5 1.9-.5 2.8v.1c0 1 .2 1.9.5 2.7a5.8 5.8 0 005.7 4c1 0 1.8-.1 2.6-.5.8-.3 1.5-.8 2.2-1.6l.1-.2v-.3l-1.5-1.7-.3-.1-.2.1-.6.6a3.8 3.8 0 01-1.5.8c-.7.1-1.4 0-2-.2l-.9-.9c-.2-.4-.5-.8-.6-1.3a5.2 5.2 0 010-2.9c.1-.5.4-.9.6-1.3a3 3 0 011-.8c.5-.3 1.2-.4 2-.2l.6.2a3.8 3.8 0 011.4 1.1l.2.2.3-.2 1.4-1.7.1-.2-.1-.3a6.4 6.4 0 00-7.3-1.6z"/></mask><g mask="url(#h)"><path fill="#000" fill-rule="evenodd" d="M212.3 20.6h18V.1h-18v20.5z" clip-rule="evenodd"/></g><mask id="i" width="12" height="15" x="228" y="3" mask-type="alpha" maskUnits="userSpaceOnUse"><path fill="#000" d="M232.2 4c-.7.4-1.3.8-1.9 1.4-.5.6-.9 1.4-1.2 2.2a8.8 8.8 0 000 5.7c.4.8.8 1.5 1.3 2 .6.7 1.2 1.1 2 1.4.8.3 1.6.5 2.5.5 1.8 0 3.3-.8 4.5-2.2l.1-.2v-.3L238 13l-.3-.1-.2.1-.4.4-.8.6c-.8.4-1.7.5-2.5.1-.4 0-.7-.3-1-.5l-.6-1-.4-1.4h7.5c.2 0 .4-.1.4-.3v-.5a9.7 9.7 0 00-.3-3.3c-.3-.8-.7-1.5-1.2-2-.5-.6-1-1-1.7-1.2a5.7 5.7 0 00-4.4 0zm0 3.8l.6-.9.7-.5a2.1 2.1 0 012.5.6c.2.2.4.5.5.9l.1.9H232c0-.4.1-.7.3-1z"/></mask><g mask="url(#i)"><path fill="#000" fill-rule="evenodd" d="M225.3 20.6h18V.1h-18v20.5z" clip-rule="evenodd"/></g><mask id="j" width="11" height="17" x="267" y="0" mask-type="alpha" maskUnits="userSpaceOnUse"><path fill="#fff" d="M276.9 0h-9.2c-.2 0-.4.2-.4.4v2.2c0 .2.2.4.4.4h5.6l-4.7 13.4c-.1.3 0 .5.3.5h2.5c.2 0 .5 0 .6-.3L277 1.8l.1-1.4c0-.2-.1-.3-.3-.3z"/></mask><g mask="url(#j)"><path fill="#000" fill-rule="evenodd" d="M264 20.3h16.7V-3.4h-16.8v23.7z" clip-rule="evenodd"/></g><mask id="k" width="12" height="18" x="254" y="0" mask-type="alpha" maskUnits="userSpaceOnUse"><path fill="#fff" d="M260 0h-.1c-.8 0-1.5.2-2.2.5-.6.4-1.2.8-1.7 1.4-.4.6-.8 1.3-1 2.2-.4.8-.5 1.7-.5 2.7v3.6c0 1 .1 1.9.4 2.7.3.8.7 1.5 1.1 2.1.5.6 1 1.1 1.7 1.4.7.4 1.4.6 2.2.6h.2c.7 0 1.5-.2 2.1-.6a5 5 0 001.7-1.4c.5-.6.9-1.3 1.1-2.1.3-.8.4-1.7.4-2.7V6.8c0-1-.1-2-.4-2.7a5.1 5.1 0 00-2.8-3.6c-.6-.3-1.3-.5-2.1-.5zm.2 3h.4l-3 8.7c-.2-.4-.2-.9-.2-1.3V6.8l.1-1.5.6-1.2c.2-.4.5-.7.8-.9l.8-.3h.5zm-.5 11.2l-.4-.1 3.1-8.7.2 1.4v3.6c0 .5 0 1-.2 1.4-.1.5-.3 1-.6 1.3l-.8.8c-.2.2-.5.3-.8.3h-.2-.1-.2z"/></mask><g mask="url(#k)"><path fill="#000" fill-rule="evenodd" d="M251 20.6H269v-24H251v24z" clip-rule="evenodd"/></g><mask id="l" width="11" height="18" x="242" y="0" mask-type="alpha" maskUnits="userSpaceOnUse"><path fill="#fff" d="M244.7.5A5 5 0 00243 2l-.1.1v.5l1.3 1.5.3.1.2-.1a4 4 0 011.2-1c.7-.4 1.4-.4 2-.2a1.7 1.7 0 01.8 1l.2.7c0 .4 0 .7-.2 1-.1.3-.3.5-.6.7l-1.2.5-1.6.2c-.2 0-.4.1-.4.3v2c0 .1.2.3.4.3h1.1l1.2.1.9.4a2 2 0 01.7 1.7l-.1 1-.5.9a2.2 2.2 0 01-1.6.6c-.7 0-1.3-.2-2.1-.9l-.6-.5-.3-.1-.3.1-1.3 1.7a.4.4 0 000 .5 5.4 5.4 0 004.4 2 7 7 0 002.4-.3 5 5 0 001.7-1c.5-.5.8-1 1-1.7a5.8 5.8 0 00.2-3.5 5 5 0 00-.6-1.3A4.2 4.2 0 00250 8a4.3 4.3 0 001.2-1.2c.3-.2.4-.6.6-1l.2-1.2c0-.7-.2-1.3-.4-1.8a4.3 4.3 0 00-2.5-2.4 5.5 5.5 0 00-4.3.2z"/></mask><g mask="url(#l)"><path fill="#000" fill-rule="evenodd" d="M238.9 20.6h16.8v-24H239v24z" clip-rule="evenodd"/></g><path fill="#FF8383" d="M123 7.1c0 3 1.9 5.2 8.6 11.9 6.5-6.7 8.4-9.9 8.4-12.4 0-3.5-2.3-4.6-4.3-4.6s-3.7 2-4 3.4A4.7 4.7 0 00127 2c-2.6 0-4.1 2.4-4.1 5.1z"/></svg>
