<svg xmlns="http://www.w3.org/2000/svg" width="195" height="150" fill="none" viewBox="0 0 681 525"><path fill="#FF8383" d="M285 33.2c0 19.6 12.1 33.5 56.4 76.8 42-43.7 54.6-63.8 54.6-80.4C396 7.1 380.9 0 367.7 0c-13.1 0-24 12.8-26.3 21.9A30.9 30.9 0 00312 0c-17.2 0-27 15.5-27 33.2z"/><path fill="#000" d="M180.3 247.4v-.8s-6.8-.8-6.8-7.4v-44.9h41.7v44.9c0 6.6-6.9 7.4-6.9 7.4v.8h23.5v-.8s-6.8-.8-6.8-7.4v-71.8c0-6.6 6.8-7.4 6.8-7.4v-1h-23.5v1s6.9.8 6.9 7.4v25.4h-41.7v-25.4c0-6.6 6.8-7.4 6.8-7.4v-1h-23.5v1s6.9.8 6.9 7.4v71.8c0 6.6-6.9 7.4-6.9 7.4v.8h23.5zM251.4 246.6c-4 0-7-2.2-5.5-6.8l5.2-16h32.2l5 15.4c2.1 6.6-4.5 7.4-4.5 7.4v.8H308v-.8s-7.1-.8-9.2-7.4L272.5 159h-10.4l4.2 12.9-22 67.9a10.3 10.3 0 01-10 6.8v.8h17v-.8zm31.3-24.3h-31.2l15.7-48 15.5 48zM327.5 239.2v-23c16.8-1 48-14.3 48-31.6 0-17.5-15.6-25.6-29.8-25.6h-34.9v1s6.9.8 6.9 7.4v71.8c0 6.6-6.9 7.4-6.9 7.4v.8h23.5v-.8s-6.8-.8-6.8-7.4zm0-78.7h12.8c14.6 0 25.2 10.1 25.2 24 0 17.3-17.3 28-38 30.1v-54zM396 239.2v-23c16.7-1 48-14.3 48-31.6C444 167 428.3 159 414 159h-34.8v1s6.8.8 6.8 7.4v71.8c0 6.6-6.8 7.4-6.8 7.4v.8h23.5v-.8s-6.9-.8-6.9-7.4zm0-78.7h12.8c14.6 0 25.2 10.1 25.2 24 0 17.3-17.4 28-38 30.1v-54zM525 159h-17.3v1c4 0 6.4 2 3.5 6.7l-24.8 39.7-22.4-39c-3.8-6.6 2.5-7.4 2.5-7.4l.2-1h-25.5v1s7.3.8 11 7.4l24.3 42.2v29.6c0 6.6-6.9 7.4-6.9 7.4v.8h23.5v-.8s-6.9-.8-6.9-7.4v-29.6l27-43c2.7-4.5 7.9-6.6 11.8-6.6v-1zM43.4 379.5l24-74c1.6-4.6 6-6.7 10-6.7v-1h-17v1c3.8 0 7 2 5.4 6.7l-23.3 71.2-23-70.5c-2.1-6.6 4.4-7.4 4.4-7.4v-1H0v1s7 .8 9.2 7.4l26 80h10.4l-2.2-6.7zM76 385.4c-4 0-7-2.3-5.5-6.9l5.2-15.9h32.2l5 15.4c2.1 6.5-4.5 7.4-4.5 7.4v.8h24.1v-.8s-7.1-.9-9.2-7.4L97 297.8H86.7l4.2 12.8-22 68a10.3 10.3 0 01-10 6.8v.8h17v-.8zm31.3-24.3H76.1l15.7-48 15.5 48zM135.4 386.2h54.3l5.8-12.7H190c-4.9 7.7-8.8 11.2-15 11.2h-23v-78.5c0-6.6 6.8-7.4 6.8-7.4v-1h-23.5v1s6.9.8 6.9 7.4V378c0 6.5-6.9 7.4-6.9 7.4v.8zM198.8 386.2h54.3l5.8-12.7h-5.4c-4.9 7.7-8.8 11.2-15 11.2h-23v-51h11.2c6.1 0 9.6 1.4 12.4 8.8h1v-19.2h-1c-2.8 7.6-6.3 8.8-12.4 8.8h-11.2v-32.8h15.8c6.2 0 10 3.6 15 11.3h5.3l-5.6-12.8h-47.2v1s6.9.8 6.9 7.4V378c0 6.5-6.9 7.4-6.9 7.4v.8zM329 378.5v-73c0-4.6 3.8-6.7 7.7-6.7v-1h-17v1c4 0 7.8 2 7.8 6.7v73c0 .6 0 .9-.2 1.3l-48.4-82h-17v1c4 0 7.6 2 7.6 6.7v73c0 4.6-3.6 6.9-7.7 6.9v.8H279v-.8c-4 0-7.8-2.3-7.8-6.9v-73l.1-1.3 48.6 82h16.9v-.8c-4 0-7.7-2.3-7.7-6.9zM421.9 297.8h-78l-4.2 16.9h7.3s4.8-15.4 18.3-15.4H378V378c0 6.5-6.7 7.4-6.7 7.4v.8h23.5v-.8s-6.8-.9-6.8-7.4v-78.7h12.6c13.7 0 18.3 15.4 18.3 15.4h7.3l-4.2-17zM452.2 386.2v-.8s-6.9-.9-6.9-7.4v-71.8c0-6.6 6.9-7.4 6.9-7.4v-1h-23.5v1s6.8.8 6.8 7.4V378c0 6.5-6.8 7.4-6.8 7.4v.8h23.5zM522.5 378.5v-73c0-4.6 3.8-6.7 7.7-6.7v-1h-17v1c4 0 7.8 2 7.8 6.7v73c0 .6 0 .9-.2 1.3l-48.4-82h-17v1c4 0 7.6 2 7.6 6.7v73c0 4.6-3.6 6.9-7.7 6.9v.8h17.1v-.8c-4 0-7.8-2.3-7.8-6.9v-73l.1-1.3 48.6 82h16.9v-.8c-4 0-7.7-2.3-7.7-6.9zM533.2 386.2h54.3l5.8-12.7h-5.4c-4.9 7.7-8.8 11.2-15 11.2h-23v-51H561c6.1 0 9.6 1.4 12.4 8.8h1v-19.2h-1c-2.8 7.6-6.3 8.8-12.4 8.8h-11.2v-32.8h15.8c6.1 0 10 3.6 15 11.3h5.3l-5.6-12.8h-47.2v1s6.9.8 6.9 7.4V378c0 6.5-6.9 7.4-6.9 7.4v.8zM619 294a266.9 266.9 0 01-12 32.7h-9.1c1-3.5 1.8-7.3 2.7-11.3a347.3 347.3 0 004.3-23h13.2l1 1.6zM662.4 342c-14.3-12.2-29.5-23.7-29.4-32.5.4-12.3 46-19.1 24.6 17.5l16.5-5.9c4.5-13-3-23.3-22.2-23.3-18.6 0-27 10.7-26.7 22 .1 7.5 8.4 14.7 18.3 22.3 13.1 10 28.4 22.2 28.1 31.3-.4 15-33 15.5-36-13.7l-15 11.7s8.6 14.8 31.3 14.8c18.6 0 29.4-10.6 29.1-22-.1-7.3-9.1-14-18.6-22.1zM269.8 525c24.8 0 40.3-19.8 40.3-44.1 0-24.4-15.5-44.3-40.3-44.3H240v1s6.9.8 6.9 7.3v71.9c0 6.5-6.9 7.4-6.9 7.4v.8h30zm-2.5-86.9c24.2 0 32 26.1 32 42.8 0 16.4-7.8 42.6-32 42.6h-10.8V438h10.8zM321.6 524.2c-4 0-7-2.3-5.5-6.9l5.2-16h32.2l5 15.5c2.1 6.5-4.4 7.4-4.4 7.4v.8h24v-.8s-7.1-.9-9.2-7.4l-26.2-80.2h-10.3l4.2 12.8-22.1 68a10.3 10.3 0 01-10 6.8v.8h17.1v-.8zm31.4-24.3h-31.3l15.7-48.1 15.6 48zM442 436.6h-17.4v1c4 0 6.4 2 3.5 6.6L403.3 484l-22.4-39c-3.8-6.5 2.5-7.4 2.5-7.4l.2-1H358v1s7.3.9 11 7.4l24.3 42.2v29.7c0 6.5-6.9 7.4-6.9 7.4v.8H410v-.8s-6.8-.9-6.8-7.4V487l26.8-42.9c2.8-4.6 8-6.7 12-6.7v-1z"/></svg>
